<?xml version="1.0" encoding="utf-8"?>
<!-- Generator: Adobe Illustrator 22.0.1, SVG Export Plug-In . SVG Version: 6.00 Build 0)  -->
<svg version="1.1" id="icons" xmlns="http://www.w3.org/2000/svg" xmlns:xlink="http://www.w3.org/1999/xlink" x="0px" y="0px"
	 viewBox="0 0 32 32" style="enable-background:new 0 0 32 32;" xml:space="preserve">
<style type="text/css">
	.st0{fill:#FFFFFF;}
	.st1{fill:none;}
	.st2{fill:#212121;}
</style>
<g id="XMLID_386_">
</g>
<g id="XMLID_1_">
</g>
<path class="st0" d="M-115.6-100.8c0-1.8-1.6-3.4-3.4-3.4h-13.5c-1.8,0-3.4,1.6-3.4,3.4v13.4c0,1.8,1.6,3.4,3.4,3.4h6.7v-7.6h-2.5
	V-95h2.5v-1.3c0-2.3,1.7-4.3,3.8-4.3h2.7v3.4h-2.7c-0.3,0-0.7,0.4-0.7,0.9v1.3h3.4v3.4h-3.4v7.6h3.6c1.8,0,3.4-1.6,3.4-3.4V-100.8z"
	/>
<path class="st0" d="M21.2,15.3h-0.7v-1.2h0.7V15.3z M21.2,17.6h-0.7v-1.2h0.7V17.6z M17.9,15.3h-0.7v-1.2h0.7V15.3z M17.9,17.6
	h-0.7v-1.2h0.7V17.6z M17.9,20h-0.7v-1.2h0.7V20z M14.7,15.3H14v-1.2h0.7V15.3z M14.7,17.6H14v-1.2h0.7V17.6z M14.7,20H14v-1.2h0.7
	V20z M11.4,17.6h-0.7v-1.2h0.7V17.6z M11.4,20h-0.7v-1.2h0.7V20z M21.2,11.5v1.4h-0.7v-1.4h-2.6v1.4h-0.7v-1.4h-2.6v1.4H14v-1.4
	h-2.6v1.4h-0.7v-1.4H9.2v9.8h13.5v-9.8H21.2z M21.2,15.3h-0.7v-1.2h0.7V15.3z M21.2,17.6h-0.7v-1.2h0.7V17.6z M17.9,15.3h-0.7v-1.2
	h0.7V15.3z M17.9,17.6h-0.7v-1.2h0.7V17.6z M17.9,20h-0.7v-1.2h0.7V20z M14.7,15.3H14v-1.2h0.7V15.3z M14.7,17.6H14v-1.2h0.7V17.6z
	 M14.7,20H14v-1.2h0.7V20z M11.4,17.6h-0.7v-1.2h0.7V17.6z M11.4,20h-0.7v-1.2h0.7V20z M21.2,11.5v1.4h-0.7v-1.4h-2.6v1.4h-0.7v-1.4
	h-2.6v1.4H14v-1.4h-2.6v1.4h-0.7v-1.4H9.2v9.8h13.5v-9.8H21.2z M21.2,15.3h-0.7v-1.2h0.7V15.3z M21.2,17.6h-0.7v-1.2h0.7V17.6z
	 M17.9,15.3h-0.7v-1.2h0.7V15.3z M17.9,17.6h-0.7v-1.2h0.7V17.6z M17.9,20h-0.7v-1.2h0.7V20z M14.7,15.3H14v-1.2h0.7V15.3z
	 M14.7,17.6H14v-1.2h0.7V17.6z M14.7,20H14v-1.2h0.7V20z M11.4,17.6h-0.7v-1.2h0.7V17.6z M11.4,20h-0.7v-1.2h0.7V20z M21.2,11.5v1.4
	h-0.7v-1.4h-2.6v1.4h-0.7v-1.4h-2.6v1.4H14v-1.4h-2.6v1.4h-0.7v-1.4H9.2v9.8h13.5v-9.8H21.2z M21.2,15.3h-0.7v-1.2h0.7V15.3z
	 M21.2,17.6h-0.7v-1.2h0.7V17.6z M17.9,15.3h-0.7v-1.2h0.7V15.3z M17.9,17.6h-0.7v-1.2h0.7V17.6z M17.9,20h-0.7v-1.2h0.7V20z
	 M14.7,15.3H14v-1.2h0.7V15.3z M14.7,17.6H14v-1.2h0.7V17.6z M14.7,20H14v-1.2h0.7V20z M11.4,17.6h-0.7v-1.2h0.7V17.6z M11.4,20
	h-0.7v-1.2h0.7V20z M21.2,11.5v1.4h-0.7v-1.4h-2.6v1.4h-0.7v-1.4h-2.6v1.4H14v-1.4h-2.6v1.4h-0.7v-1.4H9.2v9.8h13.5v-9.8H21.2z
	 M21.2,15.3h-0.7v-1.2h0.7V15.3z M21.2,17.6h-0.7v-1.2h0.7V17.6z M17.9,15.3h-0.7v-1.2h0.7V15.3z M17.9,17.6h-0.7v-1.2h0.7V17.6z
	 M17.9,20h-0.7v-1.2h0.7V20z M14.7,15.3H14v-1.2h0.7V15.3z M14.7,17.6H14v-1.2h0.7V17.6z M14.7,20H14v-1.2h0.7V20z M11.4,17.6h-0.7
	v-1.2h0.7V17.6z M11.4,20h-0.7v-1.2h0.7V20z M21.2,11.5v1.4h-0.7v-1.4h-2.6v1.4h-0.7v-1.4h-2.6v1.4H14v-1.4h-2.6v1.4h-0.7v-1.4H9.2
	v9.8h13.5v-9.8H21.2z M21.2,15.3h-0.7v-1.2h0.7V15.3z M21.2,17.6h-0.7v-1.2h0.7V17.6z M17.9,15.3h-0.7v-1.2h0.7V15.3z M17.9,17.6
	h-0.7v-1.2h0.7V17.6z M17.9,20h-0.7v-1.2h0.7V20z M14.7,15.3H14v-1.2h0.7V15.3z M14.7,17.6H14v-1.2h0.7V17.6z M14.7,20H14v-1.2h0.7
	V20z M11.4,17.6h-0.7v-1.2h0.7V17.6z M11.4,20h-0.7v-1.2h0.7V20z M21.2,11.5v1.4h-0.7v-1.4h-2.6v1.4h-0.7v-1.4h-2.6v1.4H14v-1.4
	h-2.6v1.4h-0.7v-1.4H9.2v9.8h13.5v-9.8H21.2z M21.2,15.3h-0.7v-1.2h0.7V15.3z M21.2,17.6h-0.7v-1.2h0.7V17.6z M17.9,15.3h-0.7v-1.2
	h0.7V15.3z M17.9,17.6h-0.7v-1.2h0.7V17.6z M17.9,20h-0.7v-1.2h0.7V20z M14.7,15.3H14v-1.2h0.7V15.3z M14.7,17.6H14v-1.2h0.7V17.6z
	 M14.7,20H14v-1.2h0.7V20z M11.4,17.6h-0.7v-1.2h0.7V17.6z M11.4,20h-0.7v-1.2h0.7V20z M21.2,11.5v1.4h-0.7v-1.4h-2.6v1.4h-0.7v-1.4
	h-2.6v1.4H14v-1.4h-2.6v1.4h-0.7v-1.4H9.2v9.8h13.5v-9.8H21.2z M21.2,15.3h-0.7v-1.2h0.7V15.3z M21.2,17.6h-0.7v-1.2h0.7V17.6z
	 M17.9,15.3h-0.7v-1.2h0.7V15.3z M17.9,17.6h-0.7v-1.2h0.7V17.6z M17.9,20h-0.7v-1.2h0.7V20z M14.7,15.3H14v-1.2h0.7V15.3z
	 M14.7,17.6H14v-1.2h0.7V17.6z M14.7,20H14v-1.2h0.7V20z M11.4,17.6h-0.7v-1.2h0.7V17.6z M11.4,20h-0.7v-1.2h0.7V20z M21.2,11.5v1.4
	h-0.7v-1.4h-2.6v1.4h-0.7v-1.4h-2.6v1.4H14v-1.4h-2.6v1.4h-0.7v-1.4H9.2v9.8h13.5v-9.8H21.2z M21.2,15.3h-0.7v-1.2h0.7V15.3z
	 M21.2,17.6h-0.7v-1.2h0.7V17.6z M17.9,15.3h-0.7v-1.2h0.7V15.3z M17.9,17.6h-0.7v-1.2h0.7V17.6z M17.9,20h-0.7v-1.2h0.7V20z
	 M14.7,15.3H14v-1.2h0.7V15.3z M14.7,17.6H14v-1.2h0.7V17.6z M14.7,20H14v-1.2h0.7V20z M11.4,17.6h-0.7v-1.2h0.7V17.6z M11.4,20
	h-0.7v-1.2h0.7V20z M21.2,11.5v1.4h-0.7v-1.4h-2.6v1.4h-0.7v-1.4h-2.6v1.4H14v-1.4h-2.6v1.4h-0.7v-1.4H9.2v9.8h13.5v-9.8H21.2z
	 M21.2,15.3h-0.7v-1.2h0.7V15.3z M21.2,17.6h-0.7v-1.2h0.7V17.6z M17.9,15.3h-0.7v-1.2h0.7V15.3z M17.9,17.6h-0.7v-1.2h0.7V17.6z
	 M17.9,20h-0.7v-1.2h0.7V20z M14.7,15.3H14v-1.2h0.7V15.3z M14.7,17.6H14v-1.2h0.7V17.6z M14.7,20H14v-1.2h0.7V20z M11.4,17.6h-0.7
	v-1.2h0.7V17.6z M11.4,20h-0.7v-1.2h0.7V20z M21.2,11.5v1.4h-0.7v-1.4h-2.6v1.4h-0.7v-1.4h-2.6v1.4H14v-1.4h-2.6v1.4h-0.7v-1.4H9.2
	v9.8h13.5v-9.8H21.2z M21.2,15.3h-0.7v-1.2h0.7V15.3z M21.2,17.6h-0.7v-1.2h0.7V17.6z M17.9,15.3h-0.7v-1.2h0.7V15.3z M17.9,17.6
	h-0.7v-1.2h0.7V17.6z M17.9,20h-0.7v-1.2h0.7V20z M14.7,15.3H14v-1.2h0.7V15.3z M14.7,17.6H14v-1.2h0.7V17.6z M14.7,20H14v-1.2h0.7
	V20z M11.4,17.6h-0.7v-1.2h0.7V17.6z M11.4,20h-0.7v-1.2h0.7V20z M21.2,11.5v1.4h-0.7v-1.4h-2.6v1.4h-0.7v-1.4h-2.6v1.4H14v-1.4
	h-2.6v1.4h-0.7v-1.4H9.2v9.8h13.5v-9.8H21.2z M21.2,15.3h-0.7v-1.2h0.7V15.3z M21.2,17.6h-0.7v-1.2h0.7V17.6z M17.9,15.3h-0.7v-1.2
	h0.7V15.3z M17.9,17.6h-0.7v-1.2h0.7V17.6z M17.9,20h-0.7v-1.2h0.7V20z M14.7,15.3H14v-1.2h0.7V15.3z M14.7,17.6H14v-1.2h0.7V17.6z
	 M14.7,20H14v-1.2h0.7V20z M11.4,17.6h-0.7v-1.2h0.7V17.6z M11.4,20h-0.7v-1.2h0.7V20z M21.2,11.5v1.4h-0.7v-1.4h-2.6v1.4h-0.7v-1.4
	h-2.6v1.4H14v-1.4h-2.6v1.4h-0.7v-1.4H9.2v9.8h13.5v-9.8H21.2z M21.2,15.3h-0.7v-1.2h0.7V15.3z M21.2,17.6h-0.7v-1.2h0.7V17.6z
	 M17.9,15.3h-0.7v-1.2h0.7V15.3z M17.9,17.6h-0.7v-1.2h0.7V17.6z M17.9,20h-0.7v-1.2h0.7V20z M14.7,15.3H14v-1.2h0.7V15.3z
	 M14.7,17.6H14v-1.2h0.7V17.6z M14.7,20H14v-1.2h0.7V20z M11.4,17.6h-0.7v-1.2h0.7V17.6z M11.4,20h-0.7v-1.2h0.7V20z M21.2,11.5v1.4
	h-0.7v-1.4h-2.6v1.4h-0.7v-1.4h-2.6v1.4H14v-1.4h-2.6v1.4h-0.7v-1.4H9.2v9.8h13.5v-9.8H21.2z M21.2,15.3h-0.7v-1.2h0.7V15.3z
	 M21.2,17.6h-0.7v-1.2h0.7V17.6z M17.9,15.3h-0.7v-1.2h0.7V15.3z M17.9,17.6h-0.7v-1.2h0.7V17.6z M17.9,20h-0.7v-1.2h0.7V20z
	 M14.7,15.3H14v-1.2h0.7V15.3z M14.7,17.6H14v-1.2h0.7V17.6z M14.7,20H14v-1.2h0.7V20z M11.4,17.6h-0.7v-1.2h0.7V17.6z M11.4,20
	h-0.7v-1.2h0.7V20z M21.2,11.5v1.4h-0.7v-1.4h-2.6v1.4h-0.7v-1.4h-2.6v1.4H14v-1.4h-2.6v1.4h-0.7v-1.4H9.2v9.8h13.5v-9.8H21.2z
	 M21.2,15.3h-0.7v-1.2h0.7V15.3z M21.2,17.6h-0.7v-1.2h0.7V17.6z M17.9,15.3h-0.7v-1.2h0.7V15.3z M17.9,17.6h-0.7v-1.2h0.7V17.6z
	 M17.9,20h-0.7v-1.2h0.7V20z M14.7,15.3H14v-1.2h0.7V15.3z M14.7,17.6H14v-1.2h0.7V17.6z M14.7,20H14v-1.2h0.7V20z M11.4,17.6h-0.7
	v-1.2h0.7V17.6z M11.4,20h-0.7v-1.2h0.7V20z M21.2,12.9h-0.7v-1.4h-2.6v1.4h-0.7v-1.4h-2.6v1.4H14v-1.4h-2.6v1.4h-0.7v-1.4H9.2v9.8
	h13.5v-9.8h-1.5V12.9z M23.4,22.1H8.5V10.8h2.2V9.4h0.7v1.4H14V9.4h0.7v1.4h2.6V9.4h0.7v1.4h2.6V9.4h0.7v1.4h2.2V22.1z M23,6.1H8.9
	c-1.2,0-2.1,1-2.1,2.3v15.3c0,1.3,0.9,2.3,2.1,2.3H23c1.2,0,2.1-1,2.1-2.3V8.4C25.1,7.1,24.2,6.1,23,6.1 M21.2,15.3h-0.7v-1.2h0.7
	V15.3z M21.2,17.6h-0.7v-1.2h0.7V17.6z M17.9,15.3h-0.7v-1.2h0.7V15.3z M17.9,17.6h-0.7v-1.2h0.7V17.6z M17.9,20h-0.7v-1.2h0.7V20z
	 M14.7,15.3H14v-1.2h0.7V15.3z M14.7,17.6H14v-1.2h0.7V17.6z M14.7,20H14v-1.2h0.7V20z M11.4,17.6h-0.7v-1.2h0.7V17.6z M11.4,20
	h-0.7v-1.2h0.7V20z M21.2,11.5v1.4h-0.7v-1.4h-2.6v1.4h-0.7v-1.4h-2.6v1.4H14v-1.4h-2.6v1.4h-0.7v-1.4H9.2v9.8h13.5v-9.8H21.2z
	 M21.2,15.3h-0.7v-1.2h0.7V15.3z M21.2,17.6h-0.7v-1.2h0.7V17.6z M17.9,15.3h-0.7v-1.2h0.7V15.3z M17.9,17.6h-0.7v-1.2h0.7V17.6z
	 M17.9,20h-0.7v-1.2h0.7V20z M14.7,15.3H14v-1.2h0.7V15.3z M14.7,17.6H14v-1.2h0.7V17.6z M14.7,20H14v-1.2h0.7V20z M11.4,17.6h-0.7
	v-1.2h0.7V17.6z M11.4,20h-0.7v-1.2h0.7V20z M21.2,11.5v1.4h-0.7v-1.4h-2.6v1.4h-0.7v-1.4h-2.6v1.4H14v-1.4h-2.6v1.4h-0.7v-1.4H9.2
	v9.8h13.5v-9.8H21.2z M21.2,15.3h-0.7v-1.2h0.7V15.3z M21.2,17.6h-0.7v-1.2h0.7V17.6z M17.9,15.3h-0.7v-1.2h0.7V15.3z M17.9,17.6
	h-0.7v-1.2h0.7V17.6z M17.9,20h-0.7v-1.2h0.7V20z M14.7,15.3H14v-1.2h0.7V15.3z M14.7,17.6H14v-1.2h0.7V17.6z M14.7,20H14v-1.2h0.7
	V20z M11.4,17.6h-0.7v-1.2h0.7V17.6z M11.4,20h-0.7v-1.2h0.7V20z M21.2,11.5v1.4h-0.7v-1.4h-2.6v1.4h-0.7v-1.4h-2.6v1.4H14v-1.4
	h-2.6v1.4h-0.7v-1.4H9.2v9.8h13.5v-9.8H21.2z M21.2,15.3h-0.7v-1.2h0.7V15.3z M21.2,17.6h-0.7v-1.2h0.7V17.6z M17.9,15.3h-0.7v-1.2
	h0.7V15.3z M17.9,17.6h-0.7v-1.2h0.7V17.6z M17.9,20h-0.7v-1.2h0.7V20z M14.7,15.3H14v-1.2h0.7V15.3z M14.7,17.6H14v-1.2h0.7V17.6z
	 M14.7,20H14v-1.2h0.7V20z M11.4,17.6h-0.7v-1.2h0.7V17.6z M11.4,20h-0.7v-1.2h0.7V20z M21.2,11.5v1.4h-0.7v-1.4h-2.6v1.4h-0.7v-1.4
	h-2.6v1.4H14v-1.4h-2.6v1.4h-0.7v-1.4H9.2v9.8h13.5v-9.8H21.2z M21.2,15.3h-0.7v-1.2h0.7V15.3z M21.2,17.6h-0.7v-1.2h0.7V17.6z
	 M17.9,15.3h-0.7v-1.2h0.7V15.3z M17.9,17.6h-0.7v-1.2h0.7V17.6z M17.9,20h-0.7v-1.2h0.7V20z M14.7,15.3H14v-1.2h0.7V15.3z
	 M14.7,17.6H14v-1.2h0.7V17.6z M14.7,20H14v-1.2h0.7V20z M11.4,17.6h-0.7v-1.2h0.7V17.6z M11.4,20h-0.7v-1.2h0.7V20z M21.2,11.5v1.4
	h-0.7v-1.4h-2.6v1.4h-0.7v-1.4h-2.6v1.4H14v-1.4h-2.6v1.4h-0.7v-1.4H9.2v9.8h13.5v-9.8H21.2z M21.2,15.3h-0.7v-1.2h0.7V15.3z
	 M21.2,17.6h-0.7v-1.2h0.7V17.6z M17.9,15.3h-0.7v-1.2h0.7V15.3z M17.9,17.6h-0.7v-1.2h0.7V17.6z M17.9,20h-0.7v-1.2h0.7V20z
	 M14.7,15.3H14v-1.2h0.7V15.3z M14.7,17.6H14v-1.2h0.7V17.6z M14.7,20H14v-1.2h0.7V20z M11.4,17.6h-0.7v-1.2h0.7V17.6z M11.4,20
	h-0.7v-1.2h0.7V20z M21.2,11.5v1.4h-0.7v-1.4h-2.6v1.4h-0.7v-1.4h-2.6v1.4H14v-1.4h-2.6v1.4h-0.7v-1.4H9.2v9.8h13.5v-9.8H21.2z
	 M21.2,15.3h-0.7v-1.2h0.7V15.3z M21.2,17.6h-0.7v-1.2h0.7V17.6z M17.9,15.3h-0.7v-1.2h0.7V15.3z M17.9,17.6h-0.7v-1.2h0.7V17.6z
	 M17.9,20h-0.7v-1.2h0.7V20z M14.7,15.3H14v-1.2h0.7V15.3z M14.7,17.6H14v-1.2h0.7V17.6z M14.7,20H14v-1.2h0.7V20z M11.4,17.6h-0.7
	v-1.2h0.7V17.6z M11.4,20h-0.7v-1.2h0.7V20z M21.2,11.5v1.4h-0.7v-1.4h-2.6v1.4h-0.7v-1.4h-2.6v1.4H14v-1.4h-2.6v1.4h-0.7v-1.4H9.2
	v9.8h13.5v-9.8H21.2z M21.2,15.3h-0.7v-1.2h0.7V15.3z M21.2,17.6h-0.7v-1.2h0.7V17.6z M17.9,15.3h-0.7v-1.2h0.7V15.3z M17.9,17.6
	h-0.7v-1.2h0.7V17.6z M17.9,20h-0.7v-1.2h0.7V20z M14.7,15.3H14v-1.2h0.7V15.3z M14.7,17.6H14v-1.2h0.7V17.6z M14.7,20H14v-1.2h0.7
	V20z M11.4,17.6h-0.7v-1.2h0.7V17.6z M11.4,20h-0.7v-1.2h0.7V20z M21.2,11.5v1.4h-0.7v-1.4h-2.6v1.4h-0.7v-1.4h-2.6v1.4H14v-1.4
	h-2.6v1.4h-0.7v-1.4H9.2v9.8h13.5v-9.8H21.2z M21.2,15.3h-0.7v-1.2h0.7V15.3z M21.2,17.6h-0.7v-1.2h0.7V17.6z M17.9,15.3h-0.7v-1.2
	h0.7V15.3z M17.9,17.6h-0.7v-1.2h0.7V17.6z M17.9,20h-0.7v-1.2h0.7V20z M14.7,15.3H14v-1.2h0.7V15.3z M14.7,17.6H14v-1.2h0.7V17.6z
	 M14.7,20H14v-1.2h0.7V20z M11.4,17.6h-0.7v-1.2h0.7V17.6z M11.4,20h-0.7v-1.2h0.7V20z M21.2,11.5v1.4h-0.7v-1.4h-2.6v1.4h-0.7v-1.4
	h-2.6v1.4H14v-1.4h-2.6v1.4h-0.7v-1.4H9.2v9.8h13.5v-9.8H21.2z M21.2,15.3h-0.7v-1.2h0.7V15.3z M21.2,17.6h-0.7v-1.2h0.7V17.6z
	 M17.9,15.3h-0.7v-1.2h0.7V15.3z M17.9,17.6h-0.7v-1.2h0.7V17.6z M17.9,20h-0.7v-1.2h0.7V20z M14.7,15.3H14v-1.2h0.7V15.3z
	 M14.7,17.6H14v-1.2h0.7V17.6z M14.7,20H14v-1.2h0.7V20z M11.4,17.6h-0.7v-1.2h0.7V17.6z M11.4,20h-0.7v-1.2h0.7V20z M21.2,11.5v1.4
	h-0.7v-1.4h-2.6v1.4h-0.7v-1.4h-2.6v1.4H14v-1.4h-2.6v1.4h-0.7v-1.4H9.2v9.8h13.5v-9.8H21.2z M21.2,15.3h-0.7v-1.2h0.7V15.3z
	 M21.2,17.6h-0.7v-1.2h0.7V17.6z M17.9,15.3h-0.7v-1.2h0.7V15.3z M17.9,17.6h-0.7v-1.2h0.7V17.6z M17.9,20h-0.7v-1.2h0.7V20z
	 M14.7,15.3H14v-1.2h0.7V15.3z M14.7,17.6H14v-1.2h0.7V17.6z M14.7,20H14v-1.2h0.7V20z M11.4,17.6h-0.7v-1.2h0.7V17.6z M11.4,20
	h-0.7v-1.2h0.7V20z M21.2,11.5v1.4h-0.7v-1.4h-2.6v1.4h-0.7v-1.4h-2.6v1.4H14v-1.4h-2.6v1.4h-0.7v-1.4H9.2v9.8h13.5v-9.8H21.2z
	 M21.2,15.3h-0.7v-1.2h0.7V15.3z M21.2,17.6h-0.7v-1.2h0.7V17.6z M17.9,15.3h-0.7v-1.2h0.7V15.3z M17.9,17.6h-0.7v-1.2h0.7V17.6z
	 M17.9,20h-0.7v-1.2h0.7V20z M14.7,15.3H14v-1.2h0.7V15.3z M14.7,17.6H14v-1.2h0.7V17.6z M14.7,20H14v-1.2h0.7V20z M11.4,17.6h-0.7
	v-1.2h0.7V17.6z M11.4,20h-0.7v-1.2h0.7V20z M21.2,11.5v1.4h-0.7v-1.4h-2.6v1.4h-0.7v-1.4h-2.6v1.4H14v-1.4h-2.6v1.4h-0.7v-1.4H9.2
	v9.8h13.5v-9.8H21.2z M21.2,15.3h-0.7v-1.2h0.7V15.3z M21.2,17.6h-0.7v-1.2h0.7V17.6z M17.9,15.3h-0.7v-1.2h0.7V15.3z M17.9,17.6
	h-0.7v-1.2h0.7V17.6z M17.9,20h-0.7v-1.2h0.7V20z M14.7,15.3H14v-1.2h0.7V15.3z M14.7,17.6H14v-1.2h0.7V17.6z M14.7,20H14v-1.2h0.7
	V20z M11.4,17.6h-0.7v-1.2h0.7V17.6z M11.4,20h-0.7v-1.2h0.7V20z M21.2,11.5v1.4h-0.7v-1.4h-2.6v1.4h-0.7v-1.4h-2.6v1.4H14v-1.4
	h-2.6v1.4h-0.7v-1.4H9.2v9.8h13.5v-9.8H21.2z M21.2,15.3h-0.7v-1.2h0.7V15.3z M21.2,17.6h-0.7v-1.2h0.7V17.6z M17.9,15.3h-0.7v-1.2
	h0.7V15.3z M17.9,17.6h-0.7v-1.2h0.7V17.6z M17.9,20h-0.7v-1.2h0.7V20z M14.7,15.3H14v-1.2h0.7V15.3z M14.7,17.6H14v-1.2h0.7V17.6z
	 M14.7,20H14v-1.2h0.7V20z M11.4,17.6h-0.7v-1.2h0.7V17.6z M11.4,20h-0.7v-1.2h0.7V20z M21.2,11.5v1.4h-0.7v-1.4h-2.6v1.4h-0.7v-1.4
	h-2.6v1.4H14v-1.4h-2.6v1.4h-0.7v-1.4H9.2v9.8h13.5v-9.8H21.2z"/>
<path class="st0" d="M75.8-52.7"/>
<path class="st1" d="M-259.2-29.9"/>
<path class="st0" d="M46.9-47.9c0-0.5,0.4-0.9,0.9-0.9h2.5c0.5,0,0.9,0.4,0.9,0.9S50.9-47,50.4-47h-2.5C47.3-47,46.9-47.4,46.9-47.9
	"/>
<path class="st0" d="M53.2-43.6c0,0.5-0.4,0.9-0.9,0.9h-4.4c-0.5,0-0.9-0.4-0.9-0.9c0-0.5,0.4-0.9,0.9-0.9h4.4
	C52.8-44.5,53.2-44.1,53.2-43.6"/>
<path class="st0" d="M56.4-43.3c0,2.1-1.6,3.7-3.8,3.7h-5c-2.2,0-3.8-1.6-3.8-3.7v-5c0-2.2,1.6-3.7,3.8-3.7h3.2
	c1.3,0,3.2,1.2,3.2,3.1v1.9c1.9,0,2.5,0.6,2.5,2.5V-43.3z M58.9-55.7H41.2c-0.7,0-1.3,0.6-1.3,1.2v17.3c0,0.7,0.6,1.2,1.3,1.2h17.7
	c0.7,0,1.3-0.6,1.3-1.2v-17.3C60.2-55.1,59.6-55.7,58.9-55.7"/>
<path class="st1" d="M-235.6,16"/>
<path class="st0" d="M-70.7-124.6h-11.4v-1.3c0-0.5,0.2-0.9,0.6-1.2c0.8-0.6,2.4-1.5,5.1-1.5c2.8,0,4.4,0.9,5.1,1.4
	c0.4,0.3,0.6,0.7,0.6,1.2V-124.6z M-76.4-136.5c1.6,0,2.9,1.3,2.9,3c0,1.7-1.2,3-2.9,3c-1.6,0-2.9-1.3-2.9-3
	C-79.3-135.2-78-136.5-76.4-136.5 M-68.8-140.5H-84c-1,0-1.9,0.9-1.9,2v15.9c0,1.1,0.9,2,1.9,2h15.2c1,0,1.9-0.9,1.9-2v-15.9
	C-66.9-139.6-67.8-140.5-68.8-140.5"/>
<path class="st0" d="M-114.8-117.9c0,1.2-1,2.1-2.2,2.1h-12.9c-1.2,0-2.2-1-2.2-2.1v-0.1c0.5,0.5,1.2,0.8,2,0.8h13.3
	C-116-117.1-115.3-117.4-114.8-117.9L-114.8-117.9z M-132-122.7l0.8-0.8l3.5-3.4c0.3-0.2,0.7-0.2,0.9,0l8,7.8h1.1l-3-2.9l1-1
	c0.3-0.2,0.7-0.2,0.9,0l3.8,3.8c-0.3,0.8-1,1.3-1.9,1.3h-13.3c-1.1,0-2-0.9-2-1.9V-122.7z M-119.9-130.9c1.7,0,3.1,1.4,3.1,3.1
	c0,1.7-1.4,3.1-3.1,3.1c-1.7,0-3.1-1.4-3.1-3.1C-123-129.6-121.6-130.9-119.9-130.9 M-116.5-135h-13.9c-1.7,0-3.2,1.4-3.2,3.1v14
	c0,2,1.6,3.6,3.6,3.6h12.9c2,0,3.6-1.6,3.6-3.6v-14C-113.3-133.6-114.7-135-116.5-135"/>
<path class="st2" d="M20.2-72.1L17-75.3l5.7-5.8l3.1,3.2L20.2-72.1z M26.8-78.4L23.2-82c-0.1-0.1-0.3-0.2-0.4-0.2
	c-0.2,0-0.3,0.1-0.4,0.2l-6.1,6.3C16-75.6,16-75.5,16-75.3c0,0.2,0.1,0.3,0.2,0.5l3.6,3.7C19.9-71,20-71,20.2-71
	c0.2,0,0.3-0.1,0.4-0.2l6.1-6.3c0.1-0.1,0.2-0.3,0.2-0.5C26.9-78.1,26.9-78.2,26.8-78.4"/>
<path class="st0" d="M29.4-77.6l-9,9.2c-0.2,0.3-0.5,0.4-0.9,0.4c-0.4,0-0.7-0.1-0.9-0.4l-1.3-1.3C17.8-70,18-70.5,18-71
	c0-0.5-0.2-1-0.6-1.4C17-72.8,16.6-73,16-73c-0.5,0-1,0.2-1.4,0.6l-1.2-1.3c-0.2-0.3-0.4-0.6-0.4-0.9s0.1-0.7,0.4-0.9l9-9.2
	c0.2-0.3,0.5-0.4,0.9-0.4c0.4,0,0.7,0.1,0.9,0.4l1.2,1.3c-0.4,0.4-0.6,0.8-0.6,1.4c0,0.5,0.2,1,0.6,1.4c0.4,0.4,0.8,0.6,1.3,0.6
	c0.5,0,1-0.2,1.3-0.6l1.3,1.3c0.2,0.3,0.4,0.6,0.4,0.9C29.8-78.2,29.7-77.9,29.4-77.6 M27.9-87H14.8c-2,0-3.6,1.6-3.6,3.7v13.4
	c0,2,1.6,3.7,3.6,3.7h13.1c2,0,3.6-1.6,3.6-3.7v-13.4C31.4-85.4,29.8-87,27.9-87"/>
<path class="st0" d="M20.2-72.1L17-75.3l5.7-5.8l3.1,3.2L20.2-72.1z M26.8-78.4L23.2-82c-0.1-0.1-0.3-0.2-0.4-0.2
	c-0.2,0-0.3,0.1-0.4,0.2l-6.1,6.3C16-75.6,16-75.5,16-75.3c0,0.2,0.1,0.3,0.2,0.5l3.6,3.7C19.9-71,20-71,20.2-71
	c0.2,0,0.3-0.1,0.4-0.2l6.1-6.3c0.1-0.1,0.2-0.3,0.2-0.5C26.9-78.1,26.9-78.2,26.8-78.4"/>
</svg>
