<?xml version="1.0" encoding="utf-8"?>
<!-- Generator: Adobe Illustrator 22.0.1, SVG Export Plug-In . SVG Version: 6.00 Build 0)  -->
<svg version="1.1" id="icons" xmlns="http://www.w3.org/2000/svg" xmlns:xlink="http://www.w3.org/1999/xlink" x="0px" y="0px"
	 viewBox="0 0 32 32" style="enable-background:new 0 0 32 32;" xml:space="preserve">
<style type="text/css">
	.st0{fill:#FFFFFF;}
	.st1{fill:none;}
	.st2{fill:#212121;}
</style>
<g id="XMLID_386_">
</g>
<g id="XMLID_1_">
</g>
<path class="st0" d="M-18.1-95.7c0-1.8-1.6-3.4-3.4-3.4h-13.5c-1.8,0-3.4,1.6-3.4,3.4v13.4c0,1.8,1.6,3.4,3.4,3.4h6.7v-7.6h-2.5
	v-3.4h2.5v-1.3c0-2.3,1.7-4.3,3.8-4.3h2.7v3.4h-2.7c-0.3,0-0.7,0.4-0.7,0.9v1.3h3.4v3.4H-25v7.6h3.6c1.8,0,3.4-1.6,3.4-3.4V-95.7z"
	/>
<path class="st0" d="M5.2-56.4H4.6v-1.2h0.7V-56.4z M5.2-54H4.6v-1.2h0.7V-54z M2-56.4H1.3v-1.2H2V-56.4z M2-54H1.3v-1.2H2V-54z
	 M2-51.7H1.3v-1.2H2V-51.7z M-1.3-56.4H-2v-1.2h0.7V-56.4z M-1.3-54H-2v-1.2h0.7V-54z M-1.3-51.7H-2v-1.2h0.7V-51.7z M-4.6-54h-0.7
	v-1.2h0.7V-54z M-4.6-51.7h-0.7v-1.2h0.7V-51.7z M5.2-60.1v1.4H4.6v-1.4H2v1.4H1.3v-1.4h-2.6v1.4H-2v-1.4h-2.6v1.4h-0.7v-1.4h-1.5
	v9.8H6.7v-9.8H5.2z M5.2-56.4H4.6v-1.2h0.7V-56.4z M5.2-54H4.6v-1.2h0.7V-54z M2-56.4H1.3v-1.2H2V-56.4z M2-54H1.3v-1.2H2V-54z
	 M2-51.7H1.3v-1.2H2V-51.7z M-1.3-56.4H-2v-1.2h0.7V-56.4z M-1.3-54H-2v-1.2h0.7V-54z M-1.3-51.7H-2v-1.2h0.7V-51.7z M-4.6-54h-0.7
	v-1.2h0.7V-54z M-4.6-51.7h-0.7v-1.2h0.7V-51.7z M5.2-60.1v1.4H4.6v-1.4H2v1.4H1.3v-1.4h-2.6v1.4H-2v-1.4h-2.6v1.4h-0.7v-1.4h-1.5
	v9.8H6.7v-9.8H5.2z M5.2-56.4H4.6v-1.2h0.7V-56.4z M5.2-54H4.6v-1.2h0.7V-54z M2-56.4H1.3v-1.2H2V-56.4z M2-54H1.3v-1.2H2V-54z
	 M2-51.7H1.3v-1.2H2V-51.7z M-1.3-56.4H-2v-1.2h0.7V-56.4z M-1.3-54H-2v-1.2h0.7V-54z M-1.3-51.7H-2v-1.2h0.7V-51.7z M-4.6-54h-0.7
	v-1.2h0.7V-54z M-4.6-51.7h-0.7v-1.2h0.7V-51.7z M5.2-60.1v1.4H4.6v-1.4H2v1.4H1.3v-1.4h-2.6v1.4H-2v-1.4h-2.6v1.4h-0.7v-1.4h-1.5
	v9.8H6.7v-9.8H5.2z M5.2-56.4H4.6v-1.2h0.7V-56.4z M5.2-54H4.6v-1.2h0.7V-54z M2-56.4H1.3v-1.2H2V-56.4z M2-54H1.3v-1.2H2V-54z
	 M2-51.7H1.3v-1.2H2V-51.7z M-1.3-56.4H-2v-1.2h0.7V-56.4z M-1.3-54H-2v-1.2h0.7V-54z M-1.3-51.7H-2v-1.2h0.7V-51.7z M-4.6-54h-0.7
	v-1.2h0.7V-54z M-4.6-51.7h-0.7v-1.2h0.7V-51.7z M5.2-60.1v1.4H4.6v-1.4H2v1.4H1.3v-1.4h-2.6v1.4H-2v-1.4h-2.6v1.4h-0.7v-1.4h-1.5
	v9.8H6.7v-9.8H5.2z M5.2-56.4H4.6v-1.2h0.7V-56.4z M5.2-54H4.6v-1.2h0.7V-54z M2-56.4H1.3v-1.2H2V-56.4z M2-54H1.3v-1.2H2V-54z
	 M2-51.7H1.3v-1.2H2V-51.7z M-1.3-56.4H-2v-1.2h0.7V-56.4z M-1.3-54H-2v-1.2h0.7V-54z M-1.3-51.7H-2v-1.2h0.7V-51.7z M-4.6-54h-0.7
	v-1.2h0.7V-54z M-4.6-51.7h-0.7v-1.2h0.7V-51.7z M5.2-60.1v1.4H4.6v-1.4H2v1.4H1.3v-1.4h-2.6v1.4H-2v-1.4h-2.6v1.4h-0.7v-1.4h-1.5
	v9.8H6.7v-9.8H5.2z M5.2-56.4H4.6v-1.2h0.7V-56.4z M5.2-54H4.6v-1.2h0.7V-54z M2-56.4H1.3v-1.2H2V-56.4z M2-54H1.3v-1.2H2V-54z
	 M2-51.7H1.3v-1.2H2V-51.7z M-1.3-56.4H-2v-1.2h0.7V-56.4z M-1.3-54H-2v-1.2h0.7V-54z M-1.3-51.7H-2v-1.2h0.7V-51.7z M-4.6-54h-0.7
	v-1.2h0.7V-54z M-4.6-51.7h-0.7v-1.2h0.7V-51.7z M5.2-60.1v1.4H4.6v-1.4H2v1.4H1.3v-1.4h-2.6v1.4H-2v-1.4h-2.6v1.4h-0.7v-1.4h-1.5
	v9.8H6.7v-9.8H5.2z M5.2-56.4H4.6v-1.2h0.7V-56.4z M5.2-54H4.6v-1.2h0.7V-54z M2-56.4H1.3v-1.2H2V-56.4z M2-54H1.3v-1.2H2V-54z
	 M2-51.7H1.3v-1.2H2V-51.7z M-1.3-56.4H-2v-1.2h0.7V-56.4z M-1.3-54H-2v-1.2h0.7V-54z M-1.3-51.7H-2v-1.2h0.7V-51.7z M-4.6-54h-0.7
	v-1.2h0.7V-54z M-4.6-51.7h-0.7v-1.2h0.7V-51.7z M5.2-60.1v1.4H4.6v-1.4H2v1.4H1.3v-1.4h-2.6v1.4H-2v-1.4h-2.6v1.4h-0.7v-1.4h-1.5
	v9.8H6.7v-9.8H5.2z M5.2-56.4H4.6v-1.2h0.7V-56.4z M5.2-54H4.6v-1.2h0.7V-54z M2-56.4H1.3v-1.2H2V-56.4z M2-54H1.3v-1.2H2V-54z
	 M2-51.7H1.3v-1.2H2V-51.7z M-1.3-56.4H-2v-1.2h0.7V-56.4z M-1.3-54H-2v-1.2h0.7V-54z M-1.3-51.7H-2v-1.2h0.7V-51.7z M-4.6-54h-0.7
	v-1.2h0.7V-54z M-4.6-51.7h-0.7v-1.2h0.7V-51.7z M5.2-60.1v1.4H4.6v-1.4H2v1.4H1.3v-1.4h-2.6v1.4H-2v-1.4h-2.6v1.4h-0.7v-1.4h-1.5
	v9.8H6.7v-9.8H5.2z M5.2-56.4H4.6v-1.2h0.7V-56.4z M5.2-54H4.6v-1.2h0.7V-54z M2-56.4H1.3v-1.2H2V-56.4z M2-54H1.3v-1.2H2V-54z
	 M2-51.7H1.3v-1.2H2V-51.7z M-1.3-56.4H-2v-1.2h0.7V-56.4z M-1.3-54H-2v-1.2h0.7V-54z M-1.3-51.7H-2v-1.2h0.7V-51.7z M-4.6-54h-0.7
	v-1.2h0.7V-54z M-4.6-51.7h-0.7v-1.2h0.7V-51.7z M5.2-60.1v1.4H4.6v-1.4H2v1.4H1.3v-1.4h-2.6v1.4H-2v-1.4h-2.6v1.4h-0.7v-1.4h-1.5
	v9.8H6.7v-9.8H5.2z M5.2-56.4H4.6v-1.2h0.7V-56.4z M5.2-54H4.6v-1.2h0.7V-54z M2-56.4H1.3v-1.2H2V-56.4z M2-54H1.3v-1.2H2V-54z
	 M2-51.7H1.3v-1.2H2V-51.7z M-1.3-56.4H-2v-1.2h0.7V-56.4z M-1.3-54H-2v-1.2h0.7V-54z M-1.3-51.7H-2v-1.2h0.7V-51.7z M-4.6-54h-0.7
	v-1.2h0.7V-54z M-4.6-51.7h-0.7v-1.2h0.7V-51.7z M5.2-60.1v1.4H4.6v-1.4H2v1.4H1.3v-1.4h-2.6v1.4H-2v-1.4h-2.6v1.4h-0.7v-1.4h-1.5
	v9.8H6.7v-9.8H5.2z M5.2-56.4H4.6v-1.2h0.7V-56.4z M5.2-54H4.6v-1.2h0.7V-54z M2-56.4H1.3v-1.2H2V-56.4z M2-54H1.3v-1.2H2V-54z
	 M2-51.7H1.3v-1.2H2V-51.7z M-1.3-56.4H-2v-1.2h0.7V-56.4z M-1.3-54H-2v-1.2h0.7V-54z M-1.3-51.7H-2v-1.2h0.7V-51.7z M-4.6-54h-0.7
	v-1.2h0.7V-54z M-4.6-51.7h-0.7v-1.2h0.7V-51.7z M5.2-60.1v1.4H4.6v-1.4H2v1.4H1.3v-1.4h-2.6v1.4H-2v-1.4h-2.6v1.4h-0.7v-1.4h-1.5
	v9.8H6.7v-9.8H5.2z M5.2-56.4H4.6v-1.2h0.7V-56.4z M5.2-54H4.6v-1.2h0.7V-54z M2-56.4H1.3v-1.2H2V-56.4z M2-54H1.3v-1.2H2V-54z
	 M2-51.7H1.3v-1.2H2V-51.7z M-1.3-56.4H-2v-1.2h0.7V-56.4z M-1.3-54H-2v-1.2h0.7V-54z M-1.3-51.7H-2v-1.2h0.7V-51.7z M-4.6-54h-0.7
	v-1.2h0.7V-54z M-4.6-51.7h-0.7v-1.2h0.7V-51.7z M5.2-60.1v1.4H4.6v-1.4H2v1.4H1.3v-1.4h-2.6v1.4H-2v-1.4h-2.6v1.4h-0.7v-1.4h-1.5
	v9.8H6.7v-9.8H5.2z M5.2-56.4H4.6v-1.2h0.7V-56.4z M5.2-54H4.6v-1.2h0.7V-54z M2-56.4H1.3v-1.2H2V-56.4z M2-54H1.3v-1.2H2V-54z
	 M2-51.7H1.3v-1.2H2V-51.7z M-1.3-56.4H-2v-1.2h0.7V-56.4z M-1.3-54H-2v-1.2h0.7V-54z M-1.3-51.7H-2v-1.2h0.7V-51.7z M-4.6-54h-0.7
	v-1.2h0.7V-54z M-4.6-51.7h-0.7v-1.2h0.7V-51.7z M5.2-60.1v1.4H4.6v-1.4H2v1.4H1.3v-1.4h-2.6v1.4H-2v-1.4h-2.6v1.4h-0.7v-1.4h-1.5
	v9.8H6.7v-9.8H5.2z M5.2-56.4H4.6v-1.2h0.7V-56.4z M5.2-54H4.6v-1.2h0.7V-54z M2-56.4H1.3v-1.2H2V-56.4z M2-54H1.3v-1.2H2V-54z
	 M2-51.7H1.3v-1.2H2V-51.7z M-1.3-56.4H-2v-1.2h0.7V-56.4z M-1.3-54H-2v-1.2h0.7V-54z M-1.3-51.7H-2v-1.2h0.7V-51.7z M-4.6-54h-0.7
	v-1.2h0.7V-54z M-4.6-51.7h-0.7v-1.2h0.7V-51.7z M5.2-60.1v1.4H4.6v-1.4H2v1.4H1.3v-1.4h-2.6v1.4H-2v-1.4h-2.6v1.4h-0.7v-1.4h-1.5
	v9.8H6.7v-9.8H5.2z M5.2-56.4H4.6v-1.2h0.7V-56.4z M5.2-54H4.6v-1.2h0.7V-54z M2-56.4H1.3v-1.2H2V-56.4z M2-54H1.3v-1.2H2V-54z
	 M2-51.7H1.3v-1.2H2V-51.7z M-1.3-56.4H-2v-1.2h0.7V-56.4z M-1.3-54H-2v-1.2h0.7V-54z M-1.3-51.7H-2v-1.2h0.7V-51.7z M-4.6-54h-0.7
	v-1.2h0.7V-54z M-4.6-51.7h-0.7v-1.2h0.7V-51.7z M5.2-58.7H4.6v-1.4H2v1.4H1.3v-1.4h-2.6v1.4H-2v-1.4h-2.6v1.4h-0.7v-1.4h-1.5v9.8
	H6.7v-9.8H5.2V-58.7z M7.4-49.6H-7.4v-11.3h2.2v-1.4h0.7v1.4H-2v-1.4h0.7v1.4h2.6v-1.4H2v1.4h2.6v-1.4h0.7v1.4h2.2V-49.6z M7.1-65.6
	H-7.1c-1.2,0-2.1,1-2.1,2.3V-48c0,1.3,0.9,2.3,2.1,2.3H7.1c1.2,0,2.1-1,2.1-2.3v-15.3C9.2-64.6,8.2-65.6,7.1-65.6 M5.2-56.4H4.6
	v-1.2h0.7V-56.4z M5.2-54H4.6v-1.2h0.7V-54z M2-56.4H1.3v-1.2H2V-56.4z M2-54H1.3v-1.2H2V-54z M2-51.7H1.3v-1.2H2V-51.7z M-1.3-56.4
	H-2v-1.2h0.7V-56.4z M-1.3-54H-2v-1.2h0.7V-54z M-1.3-51.7H-2v-1.2h0.7V-51.7z M-4.6-54h-0.7v-1.2h0.7V-54z M-4.6-51.7h-0.7v-1.2
	h0.7V-51.7z M5.2-60.1v1.4H4.6v-1.4H2v1.4H1.3v-1.4h-2.6v1.4H-2v-1.4h-2.6v1.4h-0.7v-1.4h-1.5v9.8H6.7v-9.8H5.2z M5.2-56.4H4.6v-1.2
	h0.7V-56.4z M5.2-54H4.6v-1.2h0.7V-54z M2-56.4H1.3v-1.2H2V-56.4z M2-54H1.3v-1.2H2V-54z M2-51.7H1.3v-1.2H2V-51.7z M-1.3-56.4H-2
	v-1.2h0.7V-56.4z M-1.3-54H-2v-1.2h0.7V-54z M-1.3-51.7H-2v-1.2h0.7V-51.7z M-4.6-54h-0.7v-1.2h0.7V-54z M-4.6-51.7h-0.7v-1.2h0.7
	V-51.7z M5.2-60.1v1.4H4.6v-1.4H2v1.4H1.3v-1.4h-2.6v1.4H-2v-1.4h-2.6v1.4h-0.7v-1.4h-1.5v9.8H6.7v-9.8H5.2z M5.2-56.4H4.6v-1.2h0.7
	V-56.4z M5.2-54H4.6v-1.2h0.7V-54z M2-56.4H1.3v-1.2H2V-56.4z M2-54H1.3v-1.2H2V-54z M2-51.7H1.3v-1.2H2V-51.7z M-1.3-56.4H-2v-1.2
	h0.7V-56.4z M-1.3-54H-2v-1.2h0.7V-54z M-1.3-51.7H-2v-1.2h0.7V-51.7z M-4.6-54h-0.7v-1.2h0.7V-54z M-4.6-51.7h-0.7v-1.2h0.7V-51.7z
	 M5.2-60.1v1.4H4.6v-1.4H2v1.4H1.3v-1.4h-2.6v1.4H-2v-1.4h-2.6v1.4h-0.7v-1.4h-1.5v9.8H6.7v-9.8H5.2z M5.2-56.4H4.6v-1.2h0.7V-56.4z
	 M5.2-54H4.6v-1.2h0.7V-54z M2-56.4H1.3v-1.2H2V-56.4z M2-54H1.3v-1.2H2V-54z M2-51.7H1.3v-1.2H2V-51.7z M-1.3-56.4H-2v-1.2h0.7
	V-56.4z M-1.3-54H-2v-1.2h0.7V-54z M-1.3-51.7H-2v-1.2h0.7V-51.7z M-4.6-54h-0.7v-1.2h0.7V-54z M-4.6-51.7h-0.7v-1.2h0.7V-51.7z
	 M5.2-60.1v1.4H4.6v-1.4H2v1.4H1.3v-1.4h-2.6v1.4H-2v-1.4h-2.6v1.4h-0.7v-1.4h-1.5v9.8H6.7v-9.8H5.2z M5.2-56.4H4.6v-1.2h0.7V-56.4z
	 M5.2-54H4.6v-1.2h0.7V-54z M2-56.4H1.3v-1.2H2V-56.4z M2-54H1.3v-1.2H2V-54z M2-51.7H1.3v-1.2H2V-51.7z M-1.3-56.4H-2v-1.2h0.7
	V-56.4z M-1.3-54H-2v-1.2h0.7V-54z M-1.3-51.7H-2v-1.2h0.7V-51.7z M-4.6-54h-0.7v-1.2h0.7V-54z M-4.6-51.7h-0.7v-1.2h0.7V-51.7z
	 M5.2-60.1v1.4H4.6v-1.4H2v1.4H1.3v-1.4h-2.6v1.4H-2v-1.4h-2.6v1.4h-0.7v-1.4h-1.5v9.8H6.7v-9.8H5.2z M5.2-56.4H4.6v-1.2h0.7V-56.4z
	 M5.2-54H4.6v-1.2h0.7V-54z M2-56.4H1.3v-1.2H2V-56.4z M2-54H1.3v-1.2H2V-54z M2-51.7H1.3v-1.2H2V-51.7z M-1.3-56.4H-2v-1.2h0.7
	V-56.4z M-1.3-54H-2v-1.2h0.7V-54z M-1.3-51.7H-2v-1.2h0.7V-51.7z M-4.6-54h-0.7v-1.2h0.7V-54z M-4.6-51.7h-0.7v-1.2h0.7V-51.7z
	 M5.2-60.1v1.4H4.6v-1.4H2v1.4H1.3v-1.4h-2.6v1.4H-2v-1.4h-2.6v1.4h-0.7v-1.4h-1.5v9.8H6.7v-9.8H5.2z M5.2-56.4H4.6v-1.2h0.7V-56.4z
	 M5.2-54H4.6v-1.2h0.7V-54z M2-56.4H1.3v-1.2H2V-56.4z M2-54H1.3v-1.2H2V-54z M2-51.7H1.3v-1.2H2V-51.7z M-1.3-56.4H-2v-1.2h0.7
	V-56.4z M-1.3-54H-2v-1.2h0.7V-54z M-1.3-51.7H-2v-1.2h0.7V-51.7z M-4.6-54h-0.7v-1.2h0.7V-54z M-4.6-51.7h-0.7v-1.2h0.7V-51.7z
	 M5.2-60.1v1.4H4.6v-1.4H2v1.4H1.3v-1.4h-2.6v1.4H-2v-1.4h-2.6v1.4h-0.7v-1.4h-1.5v9.8H6.7v-9.8H5.2z M5.2-56.4H4.6v-1.2h0.7V-56.4z
	 M5.2-54H4.6v-1.2h0.7V-54z M2-56.4H1.3v-1.2H2V-56.4z M2-54H1.3v-1.2H2V-54z M2-51.7H1.3v-1.2H2V-51.7z M-1.3-56.4H-2v-1.2h0.7
	V-56.4z M-1.3-54H-2v-1.2h0.7V-54z M-1.3-51.7H-2v-1.2h0.7V-51.7z M-4.6-54h-0.7v-1.2h0.7V-54z M-4.6-51.7h-0.7v-1.2h0.7V-51.7z
	 M5.2-60.1v1.4H4.6v-1.4H2v1.4H1.3v-1.4h-2.6v1.4H-2v-1.4h-2.6v1.4h-0.7v-1.4h-1.5v9.8H6.7v-9.8H5.2z M5.2-56.4H4.6v-1.2h0.7V-56.4z
	 M5.2-54H4.6v-1.2h0.7V-54z M2-56.4H1.3v-1.2H2V-56.4z M2-54H1.3v-1.2H2V-54z M2-51.7H1.3v-1.2H2V-51.7z M-1.3-56.4H-2v-1.2h0.7
	V-56.4z M-1.3-54H-2v-1.2h0.7V-54z M-1.3-51.7H-2v-1.2h0.7V-51.7z M-4.6-54h-0.7v-1.2h0.7V-54z M-4.6-51.7h-0.7v-1.2h0.7V-51.7z
	 M5.2-60.1v1.4H4.6v-1.4H2v1.4H1.3v-1.4h-2.6v1.4H-2v-1.4h-2.6v1.4h-0.7v-1.4h-1.5v9.8H6.7v-9.8H5.2z M5.2-56.4H4.6v-1.2h0.7V-56.4z
	 M5.2-54H4.6v-1.2h0.7V-54z M2-56.4H1.3v-1.2H2V-56.4z M2-54H1.3v-1.2H2V-54z M2-51.7H1.3v-1.2H2V-51.7z M-1.3-56.4H-2v-1.2h0.7
	V-56.4z M-1.3-54H-2v-1.2h0.7V-54z M-1.3-51.7H-2v-1.2h0.7V-51.7z M-4.6-54h-0.7v-1.2h0.7V-54z M-4.6-51.7h-0.7v-1.2h0.7V-51.7z
	 M5.2-60.1v1.4H4.6v-1.4H2v1.4H1.3v-1.4h-2.6v1.4H-2v-1.4h-2.6v1.4h-0.7v-1.4h-1.5v9.8H6.7v-9.8H5.2z M5.2-56.4H4.6v-1.2h0.7V-56.4z
	 M5.2-54H4.6v-1.2h0.7V-54z M2-56.4H1.3v-1.2H2V-56.4z M2-54H1.3v-1.2H2V-54z M2-51.7H1.3v-1.2H2V-51.7z M-1.3-56.4H-2v-1.2h0.7
	V-56.4z M-1.3-54H-2v-1.2h0.7V-54z M-1.3-51.7H-2v-1.2h0.7V-51.7z M-4.6-54h-0.7v-1.2h0.7V-54z M-4.6-51.7h-0.7v-1.2h0.7V-51.7z
	 M5.2-60.1v1.4H4.6v-1.4H2v1.4H1.3v-1.4h-2.6v1.4H-2v-1.4h-2.6v1.4h-0.7v-1.4h-1.5v9.8H6.7v-9.8H5.2z M5.2-56.4H4.6v-1.2h0.7V-56.4z
	 M5.2-54H4.6v-1.2h0.7V-54z M2-56.4H1.3v-1.2H2V-56.4z M2-54H1.3v-1.2H2V-54z M2-51.7H1.3v-1.2H2V-51.7z M-1.3-56.4H-2v-1.2h0.7
	V-56.4z M-1.3-54H-2v-1.2h0.7V-54z M-1.3-51.7H-2v-1.2h0.7V-51.7z M-4.6-54h-0.7v-1.2h0.7V-54z M-4.6-51.7h-0.7v-1.2h0.7V-51.7z
	 M5.2-60.1v1.4H4.6v-1.4H2v1.4H1.3v-1.4h-2.6v1.4H-2v-1.4h-2.6v1.4h-0.7v-1.4h-1.5v9.8H6.7v-9.8H5.2z M5.2-56.4H4.6v-1.2h0.7V-56.4z
	 M5.2-54H4.6v-1.2h0.7V-54z M2-56.4H1.3v-1.2H2V-56.4z M2-54H1.3v-1.2H2V-54z M2-51.7H1.3v-1.2H2V-51.7z M-1.3-56.4H-2v-1.2h0.7
	V-56.4z M-1.3-54H-2v-1.2h0.7V-54z M-1.3-51.7H-2v-1.2h0.7V-51.7z M-4.6-54h-0.7v-1.2h0.7V-54z M-4.6-51.7h-0.7v-1.2h0.7V-51.7z
	 M5.2-60.1v1.4H4.6v-1.4H2v1.4H1.3v-1.4h-2.6v1.4H-2v-1.4h-2.6v1.4h-0.7v-1.4h-1.5v9.8H6.7v-9.8H5.2z M5.2-56.4H4.6v-1.2h0.7V-56.4z
	 M5.2-54H4.6v-1.2h0.7V-54z M2-56.4H1.3v-1.2H2V-56.4z M2-54H1.3v-1.2H2V-54z M2-51.7H1.3v-1.2H2V-51.7z M-1.3-56.4H-2v-1.2h0.7
	V-56.4z M-1.3-54H-2v-1.2h0.7V-54z M-1.3-51.7H-2v-1.2h0.7V-51.7z M-4.6-54h-0.7v-1.2h0.7V-54z M-4.6-51.7h-0.7v-1.2h0.7V-51.7z
	 M5.2-60.1v1.4H4.6v-1.4H2v1.4H1.3v-1.4h-2.6v1.4H-2v-1.4h-2.6v1.4h-0.7v-1.4h-1.5v9.8H6.7v-9.8H5.2z"/>
<path class="st0" d="M75.8-52.7"/>
<path class="st1" d="M-259.2-29.9"/>
<path class="st0" d="M46.9-47.9c0-0.5,0.4-0.9,0.9-0.9h2.5c0.5,0,0.9,0.4,0.9,0.9S50.9-47,50.4-47h-2.5C47.3-47,46.9-47.4,46.9-47.9
	"/>
<path class="st0" d="M53.2-43.6c0,0.5-0.4,0.9-0.9,0.9h-4.4c-0.5,0-0.9-0.4-0.9-0.9c0-0.5,0.4-0.9,0.9-0.9h4.4
	C52.8-44.5,53.2-44.1,53.2-43.6"/>
<path class="st0" d="M56.4-43.3c0,2.1-1.6,3.7-3.8,3.7h-5c-2.2,0-3.8-1.6-3.8-3.7v-5c0-2.2,1.6-3.7,3.8-3.7h3.2
	c1.3,0,3.2,1.2,3.2,3.1v1.9c1.9,0,2.5,0.6,2.5,2.5V-43.3z M58.9-55.7H41.2c-0.7,0-1.3,0.6-1.3,1.2v17.3c0,0.7,0.6,1.2,1.3,1.2h17.7
	c0.7,0,1.3-0.6,1.3-1.2v-17.3C60.2-55.1,59.6-55.7,58.9-55.7"/>
<path class="st1" d="M-235.6,16"/>
<path class="st0" d="M22.7,21.9H11.3v-1.3c0-0.5,0.2-0.9,0.6-1.2c0.8-0.6,2.4-1.5,5.1-1.5c2.8,0,4.4,0.9,5.1,1.4
	c0.4,0.3,0.6,0.7,0.6,1.2V21.9z M17,10.1c1.6,0,2.9,1.3,2.9,3c0,1.7-1.2,3-2.9,3c-1.6,0-2.9-1.3-2.9-3C14.2,11.3,15.4,10.1,17,10.1
	 M24.6,6.1H9.4c-1,0-1.9,0.9-1.9,2v15.9c0,1.1,0.9,2,1.9,2h15.2c1,0,1.9-0.9,1.9-2V8.1C26.5,7,25.7,6.1,24.6,6.1"/>
<path class="st0" d="M-114.8-117.9c0,1.2-1,2.1-2.2,2.1h-12.9c-1.2,0-2.2-1-2.2-2.1v-0.1c0.5,0.5,1.2,0.8,2,0.8h13.3
	C-116-117.1-115.3-117.4-114.8-117.9L-114.8-117.9z M-132-122.7l0.8-0.8l3.5-3.4c0.3-0.2,0.7-0.2,0.9,0l8,7.8h1.1l-3-2.9l1-1
	c0.3-0.2,0.7-0.2,0.9,0l3.8,3.8c-0.3,0.8-1,1.3-1.9,1.3h-13.3c-1.1,0-2-0.9-2-1.9V-122.7z M-119.9-130.9c1.7,0,3.1,1.4,3.1,3.1
	c0,1.7-1.4,3.1-3.1,3.1c-1.7,0-3.1-1.4-3.1-3.1C-123-129.6-121.6-130.9-119.9-130.9 M-116.5-135h-13.9c-1.7,0-3.2,1.4-3.2,3.1v14
	c0,2,1.6,3.6,3.6,3.6h12.9c2,0,3.6-1.6,3.6-3.6v-14C-113.3-133.6-114.7-135-116.5-135"/>
<path class="st2" d="M20.2-72.1L17-75.3l5.7-5.8l3.1,3.2L20.2-72.1z M26.8-78.4L23.2-82c-0.1-0.1-0.3-0.2-0.4-0.2
	c-0.2,0-0.3,0.1-0.4,0.2l-6.1,6.3C16-75.6,16-75.5,16-75.3c0,0.2,0.1,0.3,0.2,0.5l3.6,3.7C19.9-71,20-71,20.2-71
	c0.2,0,0.3-0.1,0.4-0.2l6.1-6.3c0.1-0.1,0.2-0.3,0.2-0.5C26.9-78.1,26.9-78.2,26.8-78.4"/>
<path class="st0" d="M29.4-77.6l-9,9.2c-0.2,0.3-0.5,0.4-0.9,0.4c-0.4,0-0.7-0.1-0.9-0.4l-1.3-1.3C17.8-70,18-70.5,18-71
	c0-0.5-0.2-1-0.6-1.4C17-72.8,16.6-73,16-73c-0.5,0-1,0.2-1.4,0.6l-1.2-1.3c-0.2-0.3-0.4-0.6-0.4-0.9s0.1-0.7,0.4-0.9l9-9.2
	c0.2-0.3,0.5-0.4,0.9-0.4c0.4,0,0.7,0.1,0.9,0.4l1.2,1.3c-0.4,0.4-0.6,0.8-0.6,1.4c0,0.5,0.2,1,0.6,1.4c0.4,0.4,0.8,0.6,1.3,0.6
	c0.5,0,1-0.2,1.3-0.6l1.3,1.3c0.2,0.3,0.4,0.6,0.4,0.9C29.8-78.2,29.7-77.9,29.4-77.6 M27.9-87H14.8c-2,0-3.6,1.6-3.6,3.7v13.4
	c0,2,1.6,3.7,3.6,3.7h13.1c2,0,3.6-1.6,3.6-3.7v-13.4C31.4-85.4,29.8-87,27.9-87"/>
<path class="st0" d="M20.2-72.1L17-75.3l5.7-5.8l3.1,3.2L20.2-72.1z M26.8-78.4L23.2-82c-0.1-0.1-0.3-0.2-0.4-0.2
	c-0.2,0-0.3,0.1-0.4,0.2l-6.1,6.3C16-75.6,16-75.5,16-75.3c0,0.2,0.1,0.3,0.2,0.5l3.6,3.7C19.9-71,20-71,20.2-71
	c0.2,0,0.3-0.1,0.4-0.2l6.1-6.3c0.1-0.1,0.2-0.3,0.2-0.5C26.9-78.1,26.9-78.2,26.8-78.4"/>
</svg>
