<?xml version="1.0" encoding="utf-8"?>
<!-- Generator: Adobe Illustrator 22.1.0, SVG Export Plug-In . SVG Version: 6.00 Build 0)  -->
<svg version="1.1" id="Laag_1" xmlns="http://www.w3.org/2000/svg" xmlns:xlink="http://www.w3.org/1999/xlink" x="0px" y="0px"
	 viewBox="0 0 85 85" style="enable-background:new 0 0 85 85;" xml:space="preserve">
<style type="text/css">
	.st0{fill:#CC589C;}
</style>
<path class="st0" d="M67.6,3.8H15.8C8.3,3.8,2.1,9.9,2.1,17.5v51.7c0,7.5,6.2,13.7,13.7,13.7h51.8c7.5,0,13.7-6.2,13.7-13.7V17.5
	C81.3,9.9,75.1,3.8,67.6,3.8z M57.9,24.7H48c-1.1,0-2.4,1.3-2.4,3.3v4.9h12.3v12.3H45.7V73H34.2V45.2h-9V32.9h9v-4.7
	c0-8.3,6.2-15.7,13.8-15.7h9.9V24.7z"/>
</svg>
